<svg xmlns="http://www.w3.org/2000/svg" viewBox="0 0 512 512" height="512" width="512"><g style="fill: var(--icon-fill, #000); touch-action: none;"><!-- Atom orbital ring 1 (horizontal) --><path fill-rule="evenodd" d="M441 256A185 65 0 1 0 71 256A185 65 0 1 0 441 256ZM417 256A161 41 0 1 1 95 256A161 41 0 1 1 417 256Z"/><!-- Atom orbital ring 2 (rotated 60°) --><path fill-rule="evenodd" transform="rotate(60 256 256)" d="M441 256A185 65 0 1 0 71 256A185 65 0 1 0 441 256ZM417 256A161 41 0 1 1 95 256A161 41 0 1 1 417 256Z"/><!-- Atom orbital ring 3 (rotated 120°) --><path fill-rule="evenodd" transform="rotate(120 256 256)" d="M441 256A185 65 0 1 0 71 256A185 65 0 1 0 441 256ZM417 256A161 41 0 1 1 95 256A161 41 0 1 1 417 256Z"/><!-- Nucleus --><circle cx="256" cy="256" r="44"/></g></svg>
