<svg xmlns="http://www.w3.org/2000/svg" viewBox="0 0 512 512" height="512" width="512"><g style="fill: var(--icon-fill, #000); touch-action: none;"><path d="M256 192a64 64 0 1 0 0 128 64 64 0 0 0 0-128zm0 32a32 32 0 1 1 0 64 32 32 0 0 1 0-64zm0-192c-8.8 0-16 7.2-16 16v64c0 8.8 7.2 16 16 16s16-7.2 16-16V48c0-8.8-7.2-16-16-16zm0 384c-8.8 0-16 7.2-16 16v64c0 8.8 7.2 16 16 16s16-7.2 16-16v-64c0-8.8-7.2-16-16-16zM48 240c-8.8 0-16 7.2-16 16s7.2 16 16 16h64c8.8 0 16-7.2 16-16s-7.2-16-16-16H48zm352 0c-8.8 0-16 7.2-16 16s7.2 16 16 16h64c8.8 0 16-7.2 16-16s-7.2-16-16-16h-64zM120.1 97.4c-6.2 6.2-6.2 16.4 0 22.6l45.3 45.3c6.2 6.2 16.4 6.2 22.6 0s6.2-16.4 0-22.6L142.7 97.4c-6.2-6.3-16.4-6.3-22.6 0zm208 208c-6.2 6.2-6.2 16.4 0 22.6l45.3 45.3c6.2 6.2 16.4 6.2 22.6 0s6.2-16.4 0-22.6l-45.3-45.3c-6.2-6.2-16.4-6.2-22.6 0zm22.6-208c-6.2-6.2-16.4-6.2-22.6 0l-45.3 45.3c-6.2 6.2-6.2 16.4 0 22.6s16.4 6.2 22.6 0l45.3-45.3c6.2-6.2 6.2-16.4 0-22.6zm-208 208c-6.2-6.2-16.4-6.2-22.6 0L97.4 350.6c-6.2 6.2-6.2 16.4 0 22.6s16.4 6.2 22.6 0l45.3-45.3c6.3-6.2 6.3-16.4.1-22.5z"/></g></svg>
