<svg xmlns="http://www.w3.org/2000/svg" viewBox="0 0 512 512" height="512" width="512"><g style="fill: var(--icon-fill, #000); touch-action: none;"><path d="M256 32C132.3 32 32 132.3 32 256s100.3 224 224 224 224-100.3 224-224S379.7 32 256 32zm0 48c97.2 0 176 78.8 176 176S353.2 432 256 432 80 353.2 80 256 158.8 80 256 80zm0 48c-70.7 0-128 57.3-128 128s57.3 128 128 128 128-57.3 128-128-57.3-128-128-128zm0 48c44.2 0 80 35.8 80 80s-35.8 80-80 80-80-35.8-80-80 35.8-80 80-80zm0 48a32 32 0 1 0 0 64 32 32 0 0 0 0-64z"/></g></svg>
