<svg xmlns="http://www.w3.org/2000/svg" viewBox="0 0 512 512" height="512" width="512"><g style="fill: var(--icon-fill, #000); touch-action: none;"><path d="M256 48c-8.8 0-16 7.2-16 16v160c0 8.8 7.2 16 16 16s16-7.2 16-16V64c0-8.8-7.2-16-16-16zm-90.5 45.5c-6.2 6.2-6.2 16.4 0 22.6C198.1 148.7 216 200.2 216 256c0 22.1 4.5 43.1 12.6 62.2L174.1 373c-45.2-39.1-73.8-97-73.8-161.5 0-55.7 21.4-106.4 56.4-144.2 5.9-6.4 5.5-16.5-.8-22.4-6.4-5.9-16.5-5.5-22.4.8C92.1 90 64 170.3 64 256c0 84.7 34.9 161.1 91.1 215.7 5.9 5.6 8.4 5.3 16 5.3h169.8c7.6 0 10.1.3 16-5.3C413.1 417.1 448 340.7 448 256c0-85.7-28.1-166-69.5-210.8-5.9-6.4-16-6.8-22.4-.8-6.4 5.9-6.8 16-.8 22.4 35 37.8 56.4 88.5 56.4 144.2 0 64.5-28.6 122.4-73.8 161.5l-54.5-54.8c8.1-19.1 12.6-40.1 12.6-62.2 0-55.8 17.9-107.3 50.5-139.9 6.2-6.2 6.2-16.4 0-22.6-6.2-6.2-16.4-6.2-22.6 0C282.8 125.1 256 188.1 256 256c0 13.9-2.7 27.1-7.4 39.2l-22.9-23c-3.1-3.1-7.2-4.9-11.6-4.9-4.3 0-8.5 1.7-11.6 4.9L155 332.7C133.6 307.1 120 274.2 120 238.5c0-37.3 13.4-71.4 35.5-97.4z"/></g></svg>
